<svg width="192" height="192" viewBox="0 0 192 192" fill="none" xmlns="http://www.w3.org/2000/svg">
<rect width="192" height="192" fill="white"/>
<mask id="path-2-outside-1_1_4" maskUnits="userSpaceOnUse" x="42" y="30" width="108" height="133" fill="black">
<rect fill="white" x="42" y="30" width="108" height="133"/>
<path d="M115.516 73.2834C115.09 68.9865 113.261 65.6484 110.029 63.2692C106.798 60.8899 102.412 59.7003 96.8722 59.7003C93.108 59.7003 89.9298 60.233 87.3374 61.2983C84.7451 62.3281 82.7565 63.7663 81.3715 65.6129C80.0221 67.4595 79.3474 69.5547 79.3474 71.8984C79.2764 73.8516 79.6847 75.5561 80.5725 77.0121C81.4958 78.468 82.7565 79.7287 84.3545 80.794C85.9525 81.8239 87.7991 82.7294 89.8943 83.5107C91.9894 84.2564 94.2267 84.8956 96.6059 85.4283L106.407 87.772C111.166 88.8374 115.533 90.2578 119.511 92.0334C123.488 93.8089 126.933 95.9929 129.845 98.5852C132.756 101.178 135.011 104.232 136.609 107.747C138.243 111.263 139.078 115.293 139.113 119.839C139.078 126.515 137.373 132.303 133.999 137.204C130.661 142.069 125.832 145.851 119.511 148.55C113.225 151.213 105.644 152.545 96.7657 152.545C87.9589 152.545 80.2884 151.195 73.7544 148.496C67.2558 145.798 62.1776 141.803 58.52 136.511C54.8978 131.185 52.998 124.597 52.8204 116.749H75.1393C75.3879 120.407 76.4355 123.461 78.282 125.911C80.1642 128.326 82.6677 130.155 85.7927 131.398C88.9532 132.605 92.5221 133.209 96.4994 133.209C100.406 133.209 103.797 132.641 106.673 131.504C109.585 130.368 111.84 128.788 113.438 126.763C115.036 124.739 115.835 122.413 115.835 119.786C115.835 117.335 115.107 115.276 113.651 113.607C112.231 111.937 110.136 110.517 107.366 109.345C104.631 108.173 101.276 107.108 97.2984 106.149L85.4198 103.166C76.2224 100.929 68.9603 97.4311 63.6336 92.6726C58.3069 87.9141 55.6613 81.5043 55.6968 73.4432C55.6613 66.8381 57.4191 61.0675 60.9703 56.1314C64.5569 51.1953 69.4752 47.3423 75.7252 44.5724C81.9752 41.8026 89.0775 40.4176 97.0321 40.4176C105.129 40.4176 112.195 41.8026 118.232 44.5724C124.305 47.3423 129.028 51.1953 132.401 56.1314C135.775 61.0675 137.515 66.7848 137.622 73.2834H115.516Z"/>
</mask>
<path d="M115.516 73.2834C115.09 68.9865 113.261 65.6484 110.029 63.2692C106.798 60.8899 102.412 59.7003 96.8722 59.7003C93.108 59.7003 89.9298 60.233 87.3374 61.2983C84.7451 62.3281 82.7565 63.7663 81.3715 65.6129C80.0221 67.4595 79.3474 69.5547 79.3474 71.8984C79.2764 73.8516 79.6847 75.5561 80.5725 77.0121C81.4958 78.468 82.7565 79.7287 84.3545 80.794C85.9525 81.8239 87.7991 82.7294 89.8943 83.5107C91.9894 84.2564 94.2267 84.8956 96.6059 85.4283L106.407 87.772C111.166 88.8374 115.533 90.2578 119.511 92.0334C123.488 93.8089 126.933 95.9929 129.845 98.5852C132.756 101.178 135.011 104.232 136.609 107.747C138.243 111.263 139.078 115.293 139.113 119.839C139.078 126.515 137.373 132.303 133.999 137.204C130.661 142.069 125.832 145.851 119.511 148.55C113.225 151.213 105.644 152.545 96.7657 152.545C87.9589 152.545 80.2884 151.195 73.7544 148.496C67.2558 145.798 62.1776 141.803 58.52 136.511C54.8978 131.185 52.998 124.597 52.8204 116.749H75.1393C75.3879 120.407 76.4355 123.461 78.282 125.911C80.1642 128.326 82.6677 130.155 85.7927 131.398C88.9532 132.605 92.5221 133.209 96.4994 133.209C100.406 133.209 103.797 132.641 106.673 131.504C109.585 130.368 111.84 128.788 113.438 126.763C115.036 124.739 115.835 122.413 115.835 119.786C115.835 117.335 115.107 115.276 113.651 113.607C112.231 111.937 110.136 110.517 107.366 109.345C104.631 108.173 101.276 107.108 97.2984 106.149L85.4198 103.166C76.2224 100.929 68.9603 97.4311 63.6336 92.6726C58.3069 87.9141 55.6613 81.5043 55.6968 73.4432C55.6613 66.8381 57.4191 61.0675 60.9703 56.1314C64.5569 51.1953 69.4752 47.3423 75.7252 44.5724C81.9752 41.8026 89.0775 40.4176 97.0321 40.4176C105.129 40.4176 112.195 41.8026 118.232 44.5724C124.305 47.3423 129.028 51.1953 132.401 56.1314C135.775 61.0675 137.515 66.7848 137.622 73.2834H115.516Z" fill="white"/>
<path d="M115.516 73.2834L105.565 74.2703L106.458 83.2834H115.516V73.2834ZM87.3374 61.2983L91.0294 70.5918L91.0841 70.5701L91.1386 70.5477L87.3374 61.2983ZM81.3715 65.6129L73.3715 59.6129L73.3343 59.6626L73.2976 59.7128L81.3715 65.6129ZM79.3474 71.8984L89.3408 72.2618L89.3474 72.0802V71.8984H79.3474ZM80.5725 77.0121L72.0346 82.2181L72.0804 82.2932L72.1274 82.3675L80.5725 77.0121ZM84.3545 80.794L78.8075 89.1145L78.8722 89.1576L78.9375 89.1997L84.3545 80.794ZM89.8943 83.5107L86.4004 92.8805L86.4705 92.9066L86.541 92.9317L89.8943 83.5107ZM96.6059 85.4283L98.9316 75.7025L98.8613 75.6856L98.7906 75.6698L96.6059 85.4283ZM106.407 87.772L104.081 97.4978L104.152 97.5146L104.222 97.5304L106.407 87.772ZM119.511 92.0334L115.434 101.165L119.511 92.0334ZM129.845 98.5852L136.494 91.1162H136.494L129.845 98.5852ZM136.609 107.747L127.506 111.885L127.523 111.923L127.541 111.961L136.609 107.747ZM139.113 119.839L149.113 119.892L149.113 119.826L149.113 119.761L139.113 119.839ZM133.999 137.204L125.762 131.533L125.758 131.54L125.754 131.546L133.999 137.204ZM119.511 148.55L123.412 157.757L123.425 157.752L123.437 157.747L119.511 148.55ZM73.7543 148.496L69.919 157.732L69.9278 157.735L69.9368 157.739L73.7543 148.496ZM58.52 136.511L50.2507 142.134L50.2723 142.166L50.2941 142.198L58.52 136.511ZM52.8204 116.749V106.749H42.5916L42.823 116.975L52.8204 116.749ZM75.1393 116.749L85.1163 116.071L84.4827 106.749H75.1393V116.749ZM78.2821 125.911L70.296 131.93L70.3448 131.995L70.3948 132.059L78.2821 125.911ZM85.7927 131.398L82.097 140.69L82.1603 140.715L82.224 140.739L85.7927 131.398ZM106.673 131.504L103.038 122.188L103.019 122.196L102.999 122.204L106.673 131.504ZM113.438 126.763L121.287 132.96L113.438 126.763ZM113.651 113.607L106.036 120.088L106.076 120.134L106.116 120.18L113.651 113.607ZM107.366 109.345L103.427 118.537L103.448 118.546L103.469 118.555L107.366 109.345ZM97.2984 106.149L94.8628 115.848L94.9088 115.86L94.9548 115.871L97.2984 106.149ZM85.4198 103.166L87.8554 93.4673L87.8194 93.4583L87.7833 93.4495L85.4198 103.166ZM63.6336 92.6726L56.9715 100.13L63.6336 92.6726ZM55.6968 73.4432L65.6967 73.4872L65.6969 73.4383L65.6967 73.3894L55.6968 73.4432ZM60.9703 56.1314L52.8804 50.2531L52.8665 50.2722L52.8527 50.2914L60.9703 56.1314ZM118.232 44.5724L114.062 53.6614L114.072 53.666L114.082 53.6706L118.232 44.5724ZM132.401 56.1314L124.145 61.774L124.145 61.774L132.401 56.1314ZM137.622 73.2834V83.2834H147.787L147.62 73.1195L137.622 73.2834ZM125.467 72.2965C124.785 65.4218 121.659 59.4134 115.958 55.2164L104.1 71.322C104.863 71.8835 105.394 72.5512 105.565 74.2703L125.467 72.2965ZM115.958 55.2164C110.464 51.1709 103.751 49.7003 96.8723 49.7003V69.7003C101.073 69.7003 103.132 70.6089 104.1 71.322L115.958 55.2164ZM96.8723 49.7003C92.2257 49.7003 87.6713 50.3496 83.5363 52.0489L91.1386 70.5477C92.1882 70.1163 93.9904 69.7003 96.8723 69.7003V49.7003ZM83.6455 52.0048C79.6995 53.5724 76.0722 56.012 73.3715 59.6129L89.3715 71.6129C89.4407 71.5207 89.7907 71.0839 91.0294 70.5918L83.6455 52.0048ZM73.2976 59.7128C70.6638 63.317 69.3474 67.4898 69.3474 71.8984H89.3474C89.3474 71.7936 89.3548 71.7262 89.3603 71.69C89.3657 71.6544 89.3709 71.6381 89.372 71.6346C89.3731 71.6311 89.3751 71.6253 89.3816 71.6125C89.3884 71.5993 89.4065 71.5664 89.4455 71.5131L73.2976 59.7128ZM69.354 71.535C69.2224 75.1529 69.983 78.8536 72.0346 82.2181L89.1105 71.806C89.2249 71.9937 89.2931 72.1779 89.3252 72.3118C89.3549 72.4355 89.3345 72.4352 89.3408 72.2618L69.354 71.535ZM72.1274 82.3675C73.8802 85.1314 76.18 87.3629 78.8075 89.1145L89.9015 72.4735C89.333 72.0945 89.1115 71.8047 89.0176 71.6567L72.1274 82.3675ZM78.9375 89.1997C81.2348 90.6802 83.7459 91.8906 86.4004 92.8805L93.3881 74.1408C91.8522 73.5682 90.6702 72.9675 89.7715 72.3883L78.9375 89.1997ZM86.541 92.9317C89.0529 93.8257 91.6833 94.5737 94.4212 95.1867L98.7906 75.6698C96.77 75.2175 94.926 74.687 93.2475 74.0896L86.541 92.9317ZM94.2802 95.1541L104.081 97.4978L108.733 78.0462L98.9316 75.7025L94.2802 95.1541ZM104.222 97.5304C108.407 98.4673 112.132 99.6907 115.434 101.165L123.587 82.902C118.935 80.825 113.924 79.2074 108.592 78.0136L104.222 97.5304ZM115.434 101.165C118.582 102.57 121.135 104.22 123.195 106.054L136.494 91.1162C132.731 87.766 128.394 85.0478 123.587 82.902L115.434 101.165ZM123.195 106.054C125.076 107.729 126.49 109.651 127.506 111.885L145.713 103.609C143.533 98.8118 140.437 94.6265 136.494 91.1162L123.195 106.054ZM127.541 111.961C128.477 113.976 129.087 116.556 129.113 119.917L149.113 119.761C149.068 114.03 148.009 108.55 145.678 103.533L127.541 111.961ZM129.113 119.786C129.087 124.709 127.862 128.484 125.762 131.533L142.236 142.874C146.884 136.123 149.068 128.321 149.113 119.892L129.113 119.786ZM125.754 131.546C123.657 134.602 120.452 137.274 115.584 139.353L123.437 157.747C131.211 154.427 137.665 149.536 142.245 142.861L125.754 131.546ZM115.609 139.342C110.869 141.351 104.688 142.545 96.7657 142.545V162.545C106.6 162.545 115.582 161.075 123.412 157.757L115.609 139.342ZM96.7657 142.545C88.9576 142.545 82.6376 141.346 77.572 139.254L69.9368 157.739C77.9393 161.044 86.9602 162.545 96.7657 162.545V142.545ZM77.5898 139.261C72.6919 137.227 69.2093 134.389 66.7459 130.825L50.2941 142.198C55.146 149.217 61.8196 154.368 69.919 157.732L77.5898 139.261ZM66.7892 130.888C64.4678 127.474 62.9614 122.868 62.8178 116.523L42.823 116.975C43.0345 126.327 45.3278 134.895 50.2507 142.134L66.7892 130.888ZM52.8204 126.749H75.1393V106.749H52.8204V126.749ZM65.1623 117.427C65.5164 122.638 67.0706 127.65 70.296 131.93L86.2681 119.893C85.8003 119.272 85.2593 118.176 85.1163 116.071L65.1623 117.427ZM70.3948 132.059C73.4754 136.011 77.4875 138.856 82.097 140.69L89.4884 122.106C87.8479 121.453 86.8529 120.641 86.1693 119.764L70.3948 132.059ZM82.224 140.739C86.7049 142.451 91.5123 143.209 96.4994 143.209V123.209C93.5319 123.209 91.2015 122.759 89.3614 122.056L82.224 140.739ZM96.4994 143.209C101.346 143.209 106.038 142.507 110.348 140.805L102.999 122.204C101.556 122.774 99.4655 123.209 96.4994 123.209V143.209ZM110.309 140.82C114.527 139.174 118.375 136.649 121.287 132.96L105.589 120.567C105.306 120.926 104.644 121.562 103.038 122.188L110.309 140.82ZM121.287 132.96C124.307 129.135 125.835 124.616 125.835 119.786H105.835C105.835 120.07 105.795 120.204 105.779 120.252C105.763 120.298 105.724 120.396 105.589 120.567L121.287 132.96ZM125.835 119.786C125.835 115.194 124.405 110.721 121.187 107.033L106.116 120.18C106.079 120.138 106.029 120.073 105.978 119.986C105.927 119.898 105.888 119.812 105.861 119.736C105.804 119.573 105.835 119.559 105.835 119.786H125.835ZM121.267 107.125C118.532 103.912 114.962 101.701 111.262 100.135L103.469 118.555C105.31 119.333 105.93 119.963 106.036 120.088L121.267 107.125ZM111.305 100.154C107.904 98.696 103.978 97.4729 99.642 96.4276L94.9548 115.871C98.5733 116.743 101.359 117.651 103.427 118.537L111.305 100.154ZM99.734 96.4503L87.8554 93.4673L82.9842 112.865L94.8628 115.848L99.734 96.4503ZM87.7833 93.4495C79.6827 91.4791 74.0634 88.5807 70.2957 85.215L56.9715 100.13C63.8572 106.281 72.7621 110.379 83.0563 112.883L87.7833 93.4495ZM70.2957 85.215C67.3918 82.6208 65.672 79.0948 65.6967 73.4872L45.6969 73.3991C45.6506 83.9137 49.222 93.2074 56.9715 100.13L70.2957 85.215ZM65.6967 73.3894C65.6715 68.706 66.8792 65.0413 69.0878 61.9714L52.8527 50.2914C47.959 57.0936 45.6511 64.9701 45.697 73.4969L65.6967 73.3894ZM69.0601 62.0096C71.4912 58.6639 74.9388 55.859 79.777 53.7148L71.6735 35.43C64.0117 38.8256 57.6226 43.7268 52.8804 50.2531L69.0601 62.0096ZM79.777 53.7148C84.5592 51.5954 90.2468 50.4176 97.0321 50.4176V30.4176C87.9082 30.4176 79.3913 32.0097 71.6735 35.43L79.777 53.7148ZM97.0321 50.4176C103.998 50.4176 109.588 51.6084 114.062 53.6614L122.403 35.4835C114.803 31.9967 106.259 30.4176 97.0321 30.4176V50.4176ZM114.082 53.6706C118.695 55.7746 121.916 58.5125 124.145 61.774L140.657 50.4888C136.139 43.8781 129.915 38.91 122.382 35.4743L114.082 53.6706ZM124.145 61.774C126.318 64.9529 127.546 68.7282 127.623 73.4473L147.62 73.1195C147.484 64.8414 145.232 57.1821 140.657 50.4888L124.145 61.774ZM137.622 63.2834H115.516V83.2834H137.622V63.2834Z" fill="black" mask="url(#path-2-outside-1_1_4)"/>
</svg>
