<?xml version="1.0" encoding="us-ascii" standalone="no"?><svg xmlns="http://www.w3.org/2000/svg" xmlns:xlink="http://www.w3.org/1999/xlink" contentStyleType="text/css" height="810px" preserveAspectRatio="none" style="width:1443px;height:810px;background:#777777;" version="1.1" viewBox="0 0 1443 810" width="1443px" zoomAndPan="magnify"><defs/><g><rect fill="#777777" height="810" style="stroke:none;stroke-width:1.0;" width="1443" x="0" y="0"/><!--class Manager--><g id="elem_Manager"><rect codeLine="3" fill="#2E2E2E" height="400.5313" id="Manager" rx="2.5" ry="2.5" style="stroke:#1B1B1B;stroke-width:0.5;" width="330" x="712.5" y="7"/><ellipse cx="849.5" cy="20" fill="#ADD1B2" rx="8" ry="8" style="stroke:#181818;stroke-width:1.0;"/><path d="M851.625,23.5625 Q851.0469,23.8594 850.4219,24 Q849.8125,24.1563 849.1406,24.1563 Q847.1406,24.1563 845.9688,23.0469 Q844.7969,21.9219 844.7969,20 Q844.7969,18.0781 845.9688,16.9531 Q847.1406,15.8281 849.1406,15.8281 Q849.8125,15.8281 850.4219,15.9844 Q851.0469,16.1406 851.625,16.4375 L851.625,18.0938 Q851.0469,17.7031 850.4844,17.5156 Q849.9219,17.3281 849.3125,17.3281 Q848.2031,17.3281 847.5625,18.0469 Q846.9375,18.75 846.9375,20 Q846.9375,21.2344 847.5625,21.9531 Q848.2031,22.6563 849.3125,22.6563 Q849.9219,22.6563 850.4844,22.4844 Q851.0469,22.2969 851.625,21.9063 L851.625,23.5625 Z " fill="#000000"/><text fill="#AAAAAA" font-family="Verdana" font-size="11" lengthAdjust="spacing" textLength="49" x="865.5" y="23.8081">Manager</text><line style="stroke:#1B1B1B;stroke-width:0.5;" x1="713.5" x2="1041.5" y1="33" y2="33"/><rect fill="none" height="6" style="stroke:#C82930;stroke-width:1.0;" width="6" x="720.5" y="41.4023"/><text fill="#AAAAAA" font-family="sans-serif" font-size="11" lengthAdjust="spacing" textLength="307" x="729.5" y="47.2104">PATH_TO_JSON : String = "res://ressources/cards.json"</text><rect fill="none" height="6" style="stroke:#C82930;stroke-width:1.0;" width="6" x="720.5" y="54.207"/><text fill="#AAAAAA" font-family="sans-serif" font-size="11" lengthAdjust="spacing" textLength="139" x="729.5" y="60.0151">lastCardsIndexes : Array</text><rect fill="none" height="6" style="stroke:#C82930;stroke-width:1.0;" width="6" x="720.5" y="67.0117"/><text fill="#AAAAAA" font-family="sans-serif" font-size="11" lengthAdjust="spacing" textLength="82" x="729.5" y="72.8198">cardsData : {}</text><rect fill="none" height="6" style="stroke:#C82930;stroke-width:1.0;" width="6" x="720.5" y="79.8164"/><text fill="#AAAAAA" font-family="sans-serif" font-size="11" lengthAdjust="spacing" textLength="141" x="729.5" y="85.6245">actualCardIndex : int = 0</text><rect fill="none" height="6" style="stroke:#C82930;stroke-width:1.0;" width="6" x="720.5" y="92.6211"/><text fill="#AAAAAA" font-family="sans-serif" font-size="11" lengthAdjust="spacing" textLength="167" x="729.5" y="98.4292">targetedDepartment : int = 0</text><rect fill="none" height="6" style="stroke:#C82930;stroke-width:1.0;" width="6" x="720.5" y="105.4258"/><text fill="#AAAAAA" font-family="sans-serif" font-size="11" lengthAdjust="spacing" textLength="212" x="729.5" y="111.2339">_endGameScreen : EndGameScreen</text><rect fill="none" height="6" style="stroke:#C82930;stroke-width:1.0;" width="6" x="720.5" y="118.2305"/><text fill="#AAAAAA" font-family="sans-serif" font-size="11" lengthAdjust="spacing" textLength="107" x="729.5" y="124.0386">_campus : Campus</text><rect fill="none" height="6" style="stroke:#C82930;stroke-width:1.0;" width="6" x="720.5" y="131.0352"/><text fill="#AAAAAA" font-family="sans-serif" font-size="11" lengthAdjust="spacing" textLength="135" x="729.5" y="136.8433">_financeGauge : Gauge</text><rect fill="none" height="6" style="stroke:#C82930;stroke-width:1.0;" width="6" x="720.5" y="143.8398"/><text fill="#AAAAAA" font-family="sans-serif" font-size="11" lengthAdjust="spacing" textLength="132" x="729.5" y="149.6479">_centralGauge : Gauge</text><rect fill="none" height="6" style="stroke:#C82930;stroke-width:1.0;" width="6" x="720.5" y="156.6445"/><text fill="#AAAAAA" font-family="sans-serif" font-size="11" lengthAdjust="spacing" textLength="126" x="729.5" y="162.4526">_internGauge : Gauge</text><rect fill="none" height="6" style="stroke:#C82930;stroke-width:1.0;" width="6" x="720.5" y="169.4492"/><text fill="#AAAAAA" font-family="sans-serif" font-size="11" lengthAdjust="spacing" textLength="116" x="729.5" y="175.2573">_card : DecisionCard</text><rect fill="none" height="6" style="stroke:#C82930;stroke-width:1.0;" width="6" x="720.5" y="182.2539"/><text fill="#AAAAAA" font-family="sans-serif" font-size="11" lengthAdjust="spacing" textLength="64" x="729.5" y="188.062">_tuto : Tuto</text><line style="stroke:#1B1B1B;stroke-width:0.5;" x1="713.5" x2="1041.5" y1="194.6563" y2="194.6563"/><ellipse cx="723.5" cy="206.0586" fill="#84BE84" rx="3" ry="3" style="stroke:#038048;stroke-width:1.0;"/><text fill="#AAAAAA" font-family="sans-serif" font-size="11" lengthAdjust="spacing" textLength="47" x="729.5" y="208.8667">_ready()</text><ellipse cx="723.5" cy="218.8633" fill="#84BE84" rx="3" ry="3" style="stroke:#038048;stroke-width:1.0;"/><text fill="#AAAAAA" font-family="sans-serif" font-size="11" lengthAdjust="spacing" textLength="60" x="729.5" y="221.6714">initGame()</text><ellipse cx="723.5" cy="231.668" fill="#84BE84" rx="3" ry="3" style="stroke:#038048;stroke-width:1.0;"/><text fill="#AAAAAA" font-family="sans-serif" font-size="11" lengthAdjust="spacing" textLength="59" x="729.5" y="234.4761">loadData()</text><ellipse cx="723.5" cy="244.4727" fill="#84BE84" rx="3" ry="3" style="stroke:#038048;stroke-width:1.0;"/><text fill="#AAAAAA" font-family="sans-serif" font-size="11" lengthAdjust="spacing" textLength="258" x="729.5" y="247.2808">nextCard(buildingBecomeOlder : bool = true)</text><ellipse cx="723.5" cy="257.2773" fill="#84BE84" rx="3" ry="3" style="stroke:#038048;stroke-width:1.0;"/><text fill="#AAAAAA" font-family="sans-serif" font-size="11" lengthAdjust="spacing" textLength="49" x="729.5" y="260.0854">resetUI()</text><ellipse cx="723.5" cy="270.082" fill="#84BE84" rx="3" ry="3" style="stroke:#038048;stroke-width:1.0;"/><text fill="#AAAAAA" font-family="sans-serif" font-size="11" lengthAdjust="spacing" textLength="161" x="729.5" y="272.8901">peakInfos(isRightSide : bool)</text><ellipse cx="723.5" cy="282.8867" fill="#84BE84" rx="3" ry="3" style="stroke:#038048;stroke-width:1.0;"/><text fill="#AAAAAA" font-family="sans-serif" font-size="11" lengthAdjust="spacing" textLength="134" x="729.5" y="285.6948">_on_card_peak_to_left()</text><ellipse cx="723.5" cy="295.6914" fill="#84BE84" rx="3" ry="3" style="stroke:#038048;stroke-width:1.0;"/><text fill="#AAAAAA" font-family="sans-serif" font-size="11" lengthAdjust="spacing" textLength="140" x="729.5" y="298.4995">_on_card_peak_to_right()</text><ellipse cx="723.5" cy="308.4961" fill="#84BE84" rx="3" ry="3" style="stroke:#038048;stroke-width:1.0;"/><text fill="#AAAAAA" font-family="sans-serif" font-size="11" lengthAdjust="spacing" textLength="202" x="729.5" y="311.3042">_on_card_card_chosen(value : bool)</text><ellipse cx="723.5" cy="321.3008" fill="#84BE84" rx="3" ry="3" style="stroke:#038048;stroke-width:1.0;"/><text fill="#AAAAAA" font-family="sans-serif" font-size="11" lengthAdjust="spacing" textLength="239" x="729.5" y="324.1089">_on_campus_ruined_building(building : int)</text><ellipse cx="723.5" cy="334.1055" fill="#84BE84" rx="3" ry="3" style="stroke:#038048;stroke-width:1.0;"/><text fill="#AAAAAA" font-family="sans-serif" font-size="11" lengthAdjust="spacing" textLength="176" x="729.5" y="336.9136">_on_gauge_finance_is_empty()</text><ellipse cx="723.5" cy="346.9102" fill="#84BE84" rx="3" ry="3" style="stroke:#038048;stroke-width:1.0;"/><text fill="#AAAAAA" font-family="sans-serif" font-size="11" lengthAdjust="spacing" textLength="173" x="729.5" y="349.7183">_on_gauge_central_is_empty()</text><ellipse cx="723.5" cy="359.7148" fill="#84BE84" rx="3" ry="3" style="stroke:#038048;stroke-width:1.0;"/><text fill="#AAAAAA" font-family="sans-serif" font-size="11" lengthAdjust="spacing" textLength="167" x="729.5" y="362.5229">_on_gauge_intern_is_empty()</text><ellipse cx="723.5" cy="372.5195" fill="#84BE84" rx="3" ry="3" style="stroke:#038048;stroke-width:1.0;"/><text fill="#AAAAAA" font-family="sans-serif" font-size="11" lengthAdjust="spacing" textLength="193" x="729.5" y="375.3276">_on_campus_renovated_building()</text><ellipse cx="723.5" cy="385.3242" fill="#84BE84" rx="3" ry="3" style="stroke:#038048;stroke-width:1.0;"/><text fill="#AAAAAA" font-family="sans-serif" font-size="11" lengthAdjust="spacing" textLength="71" x="729.5" y="388.1323">_on_restart()</text><ellipse cx="723.5" cy="398.1289" fill="#84BE84" rx="3" ry="3" style="stroke:#038048;stroke-width:1.0;"/><text fill="#AAAAAA" font-family="sans-serif" font-size="11" lengthAdjust="spacing" textLength="90" x="729.5" y="400.937">agingBuildings()</text></g><!--class EndGameScreen--><g id="elem_EndGameScreen"><rect codeLine="35" fill="#2E2E2E" height="118.8281" id="EndGameScreen" rx="2.5" ry="2.5" style="stroke:#1B1B1B;stroke-width:0.5;" width="193" x="7" y="519"/><ellipse cx="51.5" cy="532" fill="#ADD1B2" rx="8" ry="8" style="stroke:#181818;stroke-width:1.0;"/><path d="M53.625,535.5625 Q53.0469,535.8594 52.4219,536 Q51.8125,536.1563 51.1406,536.1563 Q49.1406,536.1563 47.9688,535.0469 Q46.7969,533.9219 46.7969,532 Q46.7969,530.0781 47.9688,528.9531 Q49.1406,527.8281 51.1406,527.8281 Q51.8125,527.8281 52.4219,527.9844 Q53.0469,528.1406 53.625,528.4375 L53.625,530.0938 Q53.0469,529.7031 52.4844,529.5156 Q51.9219,529.3281 51.3125,529.3281 Q50.2031,529.3281 49.5625,530.0469 Q48.9375,530.75 48.9375,532 Q48.9375,533.2344 49.5625,533.9531 Q50.2031,534.6563 51.3125,534.6563 Q51.9219,534.6563 52.4844,534.4844 Q53.0469,534.2969 53.625,533.9063 L53.625,535.5625 Z " fill="#000000"/><text fill="#AAAAAA" font-family="Verdana" font-size="11" lengthAdjust="spacing" textLength="97" x="67.5" y="535.8081">EndGameScreen</text><line style="stroke:#1B1B1B;stroke-width:0.5;" x1="8" x2="199" y1="545" y2="545"/><ellipse cx="18" cy="556.4023" fill="none" rx="3" ry="3" style="stroke:#038048;stroke-width:1.0;"/><text fill="#AAAAAA" font-family="sans-serif" font-size="11" lengthAdjust="spacing" textLength="37" x="24" y="559.2104">restart</text><line style="stroke:#1B1B1B;stroke-width:0.5;" x1="8" x2="199" y1="565.8047" y2="565.8047"/><ellipse cx="18" cy="577.207" fill="#84BE84" rx="3" ry="3" style="stroke:#038048;stroke-width:1.0;"/><text fill="#AAAAAA" font-family="sans-serif" font-size="11" lengthAdjust="spacing" textLength="65" x="24" y="580.0151">endGame()</text><ellipse cx="18" cy="590.0117" fill="#84BE84" rx="3" ry="3" style="stroke:#038048;stroke-width:1.0;"/><text fill="#AAAAAA" font-family="sans-serif" font-size="11" lengthAdjust="spacing" textLength="154" x="24" y="592.8198">setExplication(text : String)</text><ellipse cx="18" cy="602.8164" fill="#84BE84" rx="3" ry="3" style="stroke:#038048;stroke-width:1.0;"/><text fill="#AAAAAA" font-family="sans-serif" font-size="11" lengthAdjust="spacing" textLength="170" x="24" y="605.6245">setImage(image : Texture2D)</text><ellipse cx="18" cy="615.6211" fill="#84BE84" rx="3" ry="3" style="stroke:#038048;stroke-width:1.0;"/><text fill="#AAAAAA" font-family="sans-serif" font-size="11" lengthAdjust="spacing" textLength="108" x="24" y="618.4292">_on_exit_pressed()</text><ellipse cx="18" cy="628.4258" fill="#84BE84" rx="3" ry="3" style="stroke:#038048;stroke-width:1.0;"/><text fill="#AAAAAA" font-family="sans-serif" font-size="11" lengthAdjust="spacing" textLength="122" x="24" y="631.2339">_on_button_pressed()</text></g><!--class Campus--><g id="elem_Campus"><rect codeLine="44" fill="#2E2E2E" height="170.0469" id="Campus" rx="2.5" ry="2.5" style="stroke:#1B1B1B;stroke-width:0.5;" width="320" x="235.5" y="493.5"/><ellipse cx="369" cy="506.5" fill="#ADD1B2" rx="8" ry="8" style="stroke:#181818;stroke-width:1.0;"/><path d="M371.125,510.0625 Q370.5469,510.3594 369.9219,510.5 Q369.3125,510.6563 368.6406,510.6563 Q366.6406,510.6563 365.4688,509.5469 Q364.2969,508.4219 364.2969,506.5 Q364.2969,504.5781 365.4688,503.4531 Q366.6406,502.3281 368.6406,502.3281 Q369.3125,502.3281 369.9219,502.4844 Q370.5469,502.6406 371.125,502.9375 L371.125,504.5938 Q370.5469,504.2031 369.9844,504.0156 Q369.4219,503.8281 368.8125,503.8281 Q367.7031,503.8281 367.0625,504.5469 Q366.4375,505.25 366.4375,506.5 Q366.4375,507.7344 367.0625,508.4531 Q367.7031,509.1563 368.8125,509.1563 Q369.4219,509.1563 369.9844,508.9844 Q370.5469,508.7969 371.125,508.4063 L371.125,510.0625 Z " fill="#000000"/><text fill="#AAAAAA" font-family="Verdana" font-size="11" lengthAdjust="spacing" textLength="46" x="385" y="510.3081">Campus</text><line style="stroke:#1B1B1B;stroke-width:0.5;" x1="236.5" x2="554.5" y1="519.5" y2="519.5"/><ellipse cx="246.5" cy="530.9023" fill="none" rx="3" ry="3" style="stroke:#038048;stroke-width:1.0;"/><text fill="#AAAAAA" font-family="sans-serif" font-size="11" lengthAdjust="spacing" textLength="107" x="252.5" y="533.7104">RenovatedBuilding</text><line style="stroke:#1B1B1B;stroke-width:0.5;" x1="236.5" x2="554.5" y1="540.3047" y2="540.3047"/><ellipse cx="246.5" cy="551.707" fill="#84BE84" rx="3" ry="3" style="stroke:#038048;stroke-width:1.0;"/><text fill="#AAAAAA" font-family="sans-serif" font-size="11" lengthAdjust="spacing" textLength="241" x="252.5" y="554.5151">addToHealth(building: buildings, value: int)</text><ellipse cx="246.5" cy="564.5117" fill="#84BE84" rx="3" ry="3" style="stroke:#038048;stroke-width:1.0;"/><text fill="#AAAAAA" font-family="sans-serif" font-size="11" lengthAdjust="spacing" textLength="147" x="252.5" y="567.3198">addToAllHealth(value: int)</text><ellipse cx="246.5" cy="577.3164" fill="#84BE84" rx="3" ry="3" style="stroke:#038048;stroke-width:1.0;"/><text fill="#AAAAAA" font-family="sans-serif" font-size="11" lengthAdjust="spacing" textLength="224" x="252.5" y="580.1245">setHealth(building: buildings, value: int)</text><ellipse cx="246.5" cy="590.1211" fill="#84BE84" rx="3" ry="3" style="stroke:#038048;stroke-width:1.0;"/><text fill="#AAAAAA" font-family="sans-serif" font-size="11" lengthAdjust="spacing" textLength="130" x="252.5" y="592.9292">setAllHealth(value: int)</text><ellipse cx="246.5" cy="602.9258" fill="#84BE84" rx="3" ry="3" style="stroke:#038048;stroke-width:1.0;"/><text fill="#AAAAAA" font-family="sans-serif" font-size="11" lengthAdjust="spacing" textLength="129" x="252.5" y="605.7339">checkBuildingsHealth()</text><ellipse cx="246.5" cy="615.7305" fill="#84BE84" rx="3" ry="3" style="stroke:#038048;stroke-width:1.0;"/><text fill="#AAAAAA" font-family="sans-serif" font-size="11" lengthAdjust="spacing" textLength="167" x="252.5" y="618.5386">checkBuildingsHealthForWin()</text><ellipse cx="246.5" cy="628.5352" fill="#84BE84" rx="3" ry="3" style="stroke:#038048;stroke-width:1.0;"/><text fill="#AAAAAA" font-family="sans-serif" font-size="11" lengthAdjust="spacing" textLength="297" x="252.5" y="631.3433">updateBuildingColor(building: buildings, color: colors)</text><ellipse cx="246.5" cy="641.3398" fill="#84BE84" rx="3" ry="3" style="stroke:#038048;stroke-width:1.0;"/><text fill="#AAAAAA" font-family="sans-serif" font-size="11" lengthAdjust="spacing" textLength="281" x="252.5" y="644.1479">get_building_name(buildingEnumId : int) -&gt; String</text><ellipse cx="246.5" cy="654.1445" fill="#84BE84" rx="3" ry="3" style="stroke:#038048;stroke-width:1.0;"/><text fill="#AAAAAA" font-family="sans-serif" font-size="11" lengthAdjust="spacing" textLength="190" x="252.5" y="656.9526">ruinedBuilding(building: buildings)</text></g><!--class buildings--><g id="elem_buildings"><rect codeLine="57" fill="#2E2E2E" height="54.8047" id="buildings" rx="2.5" ry="2.5" style="stroke:#1B1B1B;stroke-width:0.5;" width="349" x="58" y="749"/><ellipse cx="204" cy="762" fill="#EB937F" rx="8" ry="8" style="stroke:#181818;stroke-width:1.0;"/><path d="M201.0156,757.9844 L206.5938,757.9844 L206.5938,759.5469 L203.0781,759.5469 L203.0781,761.0313 L206.375,761.0313 L206.375,762.5938 L203.0781,762.5938 L203.0781,764.4375 L206.7031,764.4375 L206.7031,766 L201.0156,766 L201.0156,757.9844 Z " fill="#000000"/><text fill="#AAAAAA" font-family="Verdana" font-size="11" lengthAdjust="spacing" textLength="50" x="220" y="765.8081">buildings</text><line style="stroke:#1B1B1B;stroke-width:0.5;" x1="59" x2="406" y1="775" y2="775"/><text fill="#AAAAAA" font-family="sans-serif" font-size="11" lengthAdjust="spacing" textLength="337" x="64" y="789.2104">IT, SSU, CENTRAL, CHEMISTRY, CIVILENGINEERING, LEO, ALL</text><line style="stroke:#1B1B1B;stroke-width:0.5;" x1="59" x2="406" y1="795.8047" y2="795.8047"/></g><!--class colors--><g id="elem_colors"><rect codeLine="60" fill="#2E2E2E" height="54.8047" id="colors" rx="2.5" ry="2.5" style="stroke:#1B1B1B;stroke-width:0.5;" width="232" x="442.5" y="749"/><ellipse cx="538.5" cy="762" fill="#EB937F" rx="8" ry="8" style="stroke:#181818;stroke-width:1.0;"/><path d="M535.5156,757.9844 L541.0938,757.9844 L541.0938,759.5469 L537.5781,759.5469 L537.5781,761.0313 L540.875,761.0313 L540.875,762.5938 L537.5781,762.5938 L537.5781,764.4375 L541.2031,764.4375 L541.2031,766 L535.5156,766 L535.5156,757.9844 Z " fill="#000000"/><text fill="#AAAAAA" font-family="Verdana" font-size="11" lengthAdjust="spacing" textLength="33" x="554.5" y="765.8081">colors</text><line style="stroke:#1B1B1B;stroke-width:0.5;" x1="443.5" x2="673.5" y1="775" y2="775"/><text fill="#AAAAAA" font-family="sans-serif" font-size="11" lengthAdjust="spacing" textLength="220" x="448.5" y="789.2104">BLACK, RED, ORANGE, YELLOW, GREEN</text><line style="stroke:#1B1B1B;stroke-width:0.5;" x1="443.5" x2="673.5" y1="795.8047" y2="795.8047"/></g><!--class Gauge--><g id="elem_Gauge"><rect codeLine="67" fill="#2E2E2E" height="221.2656" id="Gauge" rx="2.5" ry="2.5" style="stroke:#1B1B1B;stroke-width:0.5;" width="287" x="591" y="468"/><ellipse cx="712" cy="481" fill="#ADD1B2" rx="8" ry="8" style="stroke:#181818;stroke-width:1.0;"/><path d="M714.125,484.5625 Q713.5469,484.8594 712.9219,485 Q712.3125,485.1563 711.6406,485.1563 Q709.6406,485.1563 708.4688,484.0469 Q707.2969,482.9219 707.2969,481 Q707.2969,479.0781 708.4688,477.9531 Q709.6406,476.8281 711.6406,476.8281 Q712.3125,476.8281 712.9219,476.9844 Q713.5469,477.1406 714.125,477.4375 L714.125,479.0938 Q713.5469,478.7031 712.9844,478.5156 Q712.4219,478.3281 711.8125,478.3281 Q710.7031,478.3281 710.0625,479.0469 Q709.4375,479.75 709.4375,481 Q709.4375,482.2344 710.0625,482.9531 Q710.7031,483.6563 711.8125,483.6563 Q712.4219,483.6563 712.9844,483.4844 Q713.5469,483.2969 714.125,482.9063 L714.125,484.5625 Z " fill="#000000"/><text fill="#AAAAAA" font-family="Verdana" font-size="11" lengthAdjust="spacing" textLength="38" x="728" y="484.8081">Gauge</text><line style="stroke:#1B1B1B;stroke-width:0.5;" x1="592" x2="877" y1="494" y2="494"/><rect fill="none" height="6" style="stroke:#C82930;stroke-width:1.0;" width="6" x="599" y="502.4023"/><text fill="#AAAAAA" font-family="sans-serif" font-size="11" lengthAdjust="spacing" textLength="97" x="608" y="508.2104">_variation : Label</text><rect fill="none" height="6" style="stroke:#C82930;stroke-width:1.0;" width="6" x="599" y="515.207"/><text fill="#AAAAAA" font-family="sans-serif" font-size="11" lengthAdjust="spacing" textLength="149" x="608" y="521.0151">_gaugeNameLabel : Label</text><rect fill="none" height="6" style="stroke:#C82930;stroke-width:1.0;" width="6" x="599" y="528.0117"/><text fill="#AAAAAA" font-family="sans-serif" font-size="11" lengthAdjust="spacing" textLength="90" x="608" y="533.8198">_icon : Sprite2D</text><rect fill="none" height="6" style="stroke:#C82930;stroke-width:1.0;" width="6" x="599" y="540.8164"/><text fill="#AAAAAA" font-family="sans-serif" font-size="11" lengthAdjust="spacing" textLength="140" x="608" y="546.6245">iconTexture : Texture2D</text><rect fill="none" height="6" style="stroke:#C82930;stroke-width:1.0;" width="6" x="599" y="553.6211"/><text fill="#AAAAAA" font-family="sans-serif" font-size="11" lengthAdjust="spacing" textLength="114" x="608" y="559.4292">gaugeName : String</text><rect fill="none" height="6" style="stroke:#C82930;stroke-width:1.0;" width="6" x="599" y="566.4258"/><text fill="#AAAAAA" font-family="sans-serif" font-size="11" lengthAdjust="spacing" textLength="264" x="608" y="572.2339">COLORS : {"Green":"06ff15", "Red": "e81c1c"}</text><text fill="#AAAAAA" font-family="sans-serif" font-size="11" lengthAdjust="spacing" textLength="4" x="608" y="585.0386">&#160;</text><ellipse cx="602" cy="595.0352" fill="none" rx="3" ry="3" style="stroke:#038048;stroke-width:1.0;"/><text fill="#AAAAAA" font-family="sans-serif" font-size="11" lengthAdjust="spacing" textLength="45" x="608" y="597.8433">isEmpty</text><line style="stroke:#1B1B1B;stroke-width:0.5;" x1="592" x2="877" y1="604.4375" y2="604.4375"/><ellipse cx="602" cy="615.8398" fill="#84BE84" rx="3" ry="3" style="stroke:#038048;stroke-width:1.0;"/><text fill="#AAAAAA" font-family="sans-serif" font-size="11" lengthAdjust="spacing" textLength="150" x="608" y="618.6479">setVariation(variation : int)</text><ellipse cx="602" cy="628.6445" fill="#84BE84" rx="3" ry="3" style="stroke:#038048;stroke-width:1.0;"/><text fill="#AAAAAA" font-family="sans-serif" font-size="11" lengthAdjust="spacing" textLength="87" x="608" y="631.4526">showVariation()</text><ellipse cx="602" cy="641.4492" fill="#84BE84" rx="3" ry="3" style="stroke:#038048;stroke-width:1.0;"/><text fill="#AAAAAA" font-family="sans-serif" font-size="11" lengthAdjust="spacing" textLength="83" x="608" y="644.2573">hideVariation()</text><ellipse cx="602" cy="654.2539" fill="#84BE84" rx="3" ry="3" style="stroke:#038048;stroke-width:1.0;"/><text fill="#AAAAAA" font-family="sans-serif" font-size="11" lengthAdjust="spacing" textLength="141" x="608" y="657.062">addToValue(number: int)</text><ellipse cx="602" cy="667.0586" fill="#84BE84" rx="3" ry="3" style="stroke:#038048;stroke-width:1.0;"/><text fill="#AAAAAA" font-family="sans-serif" font-size="11" lengthAdjust="spacing" textLength="160" x="608" y="669.8667">setIcone(icone : Texture2D)</text><ellipse cx="602" cy="679.8633" fill="#84BE84" rx="3" ry="3" style="stroke:#038048;stroke-width:1.0;"/><text fill="#AAAAAA" font-family="sans-serif" font-size="11" lengthAdjust="spacing" textLength="47" x="608" y="682.6714">_ready()</text></g><!--class DecisionCard--><g id="elem_DecisionCard"><rect codeLine="84" fill="#2E2E2E" height="157.2422" id="DecisionCard" rx="2.5" ry="2.5" style="stroke:#1B1B1B;stroke-width:0.5;" width="217" x="913" y="500"/><ellipse cx="980.5" cy="513" fill="#ADD1B2" rx="8" ry="8" style="stroke:#181818;stroke-width:1.0;"/><path d="M982.625,516.5625 Q982.0469,516.8594 981.4219,517 Q980.8125,517.1563 980.1406,517.1563 Q978.1406,517.1563 976.9688,516.0469 Q975.7969,514.9219 975.7969,513 Q975.7969,511.0781 976.9688,509.9531 Q978.1406,508.8281 980.1406,508.8281 Q980.8125,508.8281 981.4219,508.9844 Q982.0469,509.1406 982.625,509.4375 L982.625,511.0938 Q982.0469,510.7031 981.4844,510.5156 Q980.9219,510.3281 980.3125,510.3281 Q979.2031,510.3281 978.5625,511.0469 Q977.9375,511.75 977.9375,513 Q977.9375,514.2344 978.5625,514.9531 Q979.2031,515.6563 980.3125,515.6563 Q980.9219,515.6563 981.4844,515.4844 Q982.0469,515.2969 982.625,514.9063 L982.625,516.5625 Z " fill="#000000"/><text fill="#AAAAAA" font-family="Verdana" font-size="11" lengthAdjust="spacing" textLength="75" x="996.5" y="516.8081">DecisionCard</text><line style="stroke:#1B1B1B;stroke-width:0.5;" x1="914" x2="1129" y1="526" y2="526"/><rect fill="none" height="6" style="stroke:#C82930;stroke-width:1.0;" width="6" x="921" y="534.4023"/><text fill="#AAAAAA" font-family="sans-serif" font-size="11" lengthAdjust="spacing" textLength="194" x="930" y="540.2104">right_arrow_pressed : bool = false</text><rect fill="none" height="6" style="stroke:#C82930;stroke-width:1.0;" width="6" x="921" y="547.207"/><text fill="#AAAAAA" font-family="sans-serif" font-size="11" lengthAdjust="spacing" textLength="188" x="930" y="553.0151">left_arrow_pressed : bool = false</text><text fill="#AAAAAA" font-family="sans-serif" font-size="11" lengthAdjust="spacing" textLength="4" x="930" y="565.8198">&#160;</text><ellipse cx="924" cy="575.8164" fill="none" rx="3" ry="3" style="stroke:#038048;stroke-width:1.0;"/><text fill="#AAAAAA" font-family="sans-serif" font-size="11" lengthAdjust="spacing" textLength="70" x="930" y="578.6245">peakToRight</text><ellipse cx="924" cy="588.6211" fill="none" rx="3" ry="3" style="stroke:#038048;stroke-width:1.0;"/><text fill="#AAAAAA" font-family="sans-serif" font-size="11" lengthAdjust="spacing" textLength="64" x="930" y="591.4292">peakToLeft</text><line style="stroke:#1B1B1B;stroke-width:0.5;" x1="914" x2="1129" y1="598.0234" y2="598.0234"/><ellipse cx="924" cy="609.4258" fill="#84BE84" rx="3" ry="3" style="stroke:#038048;stroke-width:1.0;"/><text fill="#AAAAAA" font-family="sans-serif" font-size="11" lengthAdjust="spacing" textLength="194" x="930" y="612.2339">setImage(newImage : Texture2D)</text><ellipse cx="924" cy="622.2305" fill="#84BE84" rx="3" ry="3" style="stroke:#038048;stroke-width:1.0;"/><text fill="#AAAAAA" font-family="sans-serif" font-size="11" lengthAdjust="spacing" textLength="140" x="930" y="625.0386">setDialog(dialog : String)</text><ellipse cx="924" cy="635.0352" fill="#84BE84" rx="3" ry="3" style="stroke:#038048;stroke-width:1.0;"/><text fill="#AAAAAA" font-family="sans-serif" font-size="11" lengthAdjust="spacing" textLength="76" x="930" y="637.8433">_input(event)</text><ellipse cx="924" cy="647.8398" fill="#84BE84" rx="3" ry="3" style="stroke:#038048;stroke-width:1.0;"/><text fill="#AAAAAA" font-family="sans-serif" font-size="11" lengthAdjust="spacing" textLength="142" x="930" y="650.6479">cardChosen(value : bool)</text></g><!--class Tuto--><g id="elem_Tuto"><rect codeLine="96" fill="#2E2E2E" height="93.2188" id="Tuto" rx="2.5" ry="2.5" style="stroke:#1B1B1B;stroke-width:0.5;" width="96" x="1165.5" y="532"/><ellipse cx="1197.75" cy="545" fill="#ADD1B2" rx="8" ry="8" style="stroke:#181818;stroke-width:1.0;"/><path d="M1199.875,548.5625 Q1199.2969,548.8594 1198.6719,549 Q1198.0625,549.1563 1197.3906,549.1563 Q1195.3906,549.1563 1194.2188,548.0469 Q1193.0469,546.9219 1193.0469,545 Q1193.0469,543.0781 1194.2188,541.9531 Q1195.3906,540.8281 1197.3906,540.8281 Q1198.0625,540.8281 1198.6719,540.9844 Q1199.2969,541.1406 1199.875,541.4375 L1199.875,543.0938 Q1199.2969,542.7031 1198.7344,542.5156 Q1198.1719,542.3281 1197.5625,542.3281 Q1196.4531,542.3281 1195.8125,543.0469 Q1195.1875,543.75 1195.1875,545 Q1195.1875,546.2344 1195.8125,546.9531 Q1196.4531,547.6563 1197.5625,547.6563 Q1198.1719,547.6563 1198.7344,547.4844 Q1199.2969,547.2969 1199.875,546.9063 L1199.875,548.5625 Z " fill="#000000"/><text fill="#AAAAAA" font-family="Verdana" font-size="11" lengthAdjust="spacing" textLength="25" x="1213.25" y="548.8081">Tuto</text><line style="stroke:#1B1B1B;stroke-width:0.5;" x1="1166.5" x2="1260.5" y1="558" y2="558"/><rect fill="none" height="6" style="stroke:#C82930;stroke-width:1.0;" width="6" x="1173.5" y="566.4023"/><text fill="#AAAAAA" font-family="sans-serif" font-size="11" lengthAdjust="spacing" textLength="73" x="1182.5" y="572.2104">_text : String</text><line style="stroke:#1B1B1B;stroke-width:0.5;" x1="1166.5" x2="1260.5" y1="578.8047" y2="578.8047"/><ellipse cx="1176.5" cy="590.207" fill="#84BE84" rx="3" ry="3" style="stroke:#038048;stroke-width:1.0;"/><text fill="#AAAAAA" font-family="sans-serif" font-size="11" lengthAdjust="spacing" textLength="47" x="1182.5" y="593.0151">_ready()</text><ellipse cx="1176.5" cy="603.0117" fill="#84BE84" rx="3" ry="3" style="stroke:#038048;stroke-width:1.0;"/><text fill="#AAAAAA" font-family="sans-serif" font-size="11" lengthAdjust="spacing" textLength="73" x="1182.5" y="605.8198">toAffichage()</text><ellipse cx="1176.5" cy="615.8164" fill="#84BE84" rx="3" ry="3" style="stroke:#038048;stroke-width:1.0;"/><text fill="#AAAAAA" font-family="sans-serif" font-size="11" lengthAdjust="spacing" textLength="63" x="1182.5" y="618.6245">toConfirm()</text></g><!--class Contextualization--><g id="elem_Contextualization"><rect codeLine="103" fill="#2E2E2E" height="67.6094" id="Contextualization" rx="2.5" ry="2.5" style="stroke:#1B1B1B;stroke-width:0.5;" width="139" x="1297" y="544.5"/><ellipse cx="1314.85" cy="557.5" fill="#ADD1B2" rx="8" ry="8" style="stroke:#181818;stroke-width:1.0;"/><path d="M1316.975,561.0625 Q1316.3969,561.3594 1315.7719,561.5 Q1315.1625,561.6563 1314.4906,561.6563 Q1312.4906,561.6563 1311.3188,560.5469 Q1310.1469,559.4219 1310.1469,557.5 Q1310.1469,555.5781 1311.3188,554.4531 Q1312.4906,553.3281 1314.4906,553.3281 Q1315.1625,553.3281 1315.7719,553.4844 Q1316.3969,553.6406 1316.975,553.9375 L1316.975,555.5938 Q1316.3969,555.2031 1315.8344,555.0156 Q1315.2719,554.8281 1314.6625,554.8281 Q1313.5531,554.8281 1312.9125,555.5469 Q1312.2875,556.25 1312.2875,557.5 Q1312.2875,558.7344 1312.9125,559.4531 Q1313.5531,560.1563 1314.6625,560.1563 Q1315.2719,560.1563 1315.8344,559.9844 Q1316.3969,559.7969 1316.975,559.4063 L1316.975,561.0625 Z " fill="#000000"/><text fill="#AAAAAA" font-family="Verdana" font-size="11" lengthAdjust="spacing" textLength="100" x="1327.15" y="561.3081">Contextualization</text><line style="stroke:#1B1B1B;stroke-width:0.5;" x1="1298" x2="1435" y1="570.5" y2="570.5"/><line style="stroke:#1B1B1B;stroke-width:0.5;" x1="1298" x2="1435" y1="578.5" y2="578.5"/><ellipse cx="1308" cy="589.9023" fill="#84BE84" rx="3" ry="3" style="stroke:#038048;stroke-width:1.0;"/><text fill="#AAAAAA" font-family="sans-serif" font-size="11" lengthAdjust="spacing" textLength="47" x="1314" y="592.7104">_ready()</text><ellipse cx="1308" cy="602.707" fill="#84BE84" rx="3" ry="3" style="stroke:#038048;stroke-width:1.0;"/><text fill="#AAAAAA" font-family="sans-serif" font-size="11" lengthAdjust="spacing" textLength="116" x="1314" y="605.5151">_on_close_pressed()</text></g><!--link Campus to buildings--><g id="link_Campus_buildings"><path codeLine="64" d="M317.7541,672.9854 C292.3861,703.4894 277.0205,721.966 258.7335,743.9551 " fill="none" id="Campus-buildings" style="stroke:#FFFFFF;stroke-width:1.0;"/><polygon fill="none" points="325.427,663.759,318.5151,665.8146,317.7541,672.9854,324.666,670.9298,325.427,663.759" style="stroke:#FFFFFF;stroke-width:1.0;"/><polygon fill="#FFFFFF" points="254.897,748.5683,263.7272,744.2062,258.0941,744.724,257.5763,739.0909,254.897,748.5683" style="stroke:#FFFFFF;stroke-width:1.0;"/></g><!--link Campus to colors--><g id="link_Campus_colors"><path codeLine="65" d="M473.2459,672.9854 C498.6139,703.4894 513.9795,721.966 532.2665,743.9551 " fill="none" id="Campus-colors" style="stroke:#FFFFFF;stroke-width:1.0;"/><polygon fill="none" points="465.573,663.759,466.334,670.9298,473.2459,672.9854,472.4849,665.8146,465.573,663.759" style="stroke:#FFFFFF;stroke-width:1.0;"/><polygon fill="#FFFFFF" points="536.103,748.5683,533.4237,739.0909,532.9059,744.724,527.2728,744.2062,536.103,748.5683" style="stroke:#FFFFFF;stroke-width:1.0;"/></g><!--link Manager to EndGameScreen--><g id="link_Manager_EndGameScreen"><path codeLine="108" d="M712.41,253.661 C573.525,296.144 373.25,368.182 217.5,468 C195.55,482.067 186.9961,488.1217 168.8141,506.0867 " fill="none" id="Manager-to-EndGameScreen" style="stroke:#FFFFFF;stroke-width:1.0;"/><polygon fill="none" points="156.01,518.738,173.0312,510.3547,164.597,501.8187,156.01,518.738" style="stroke:#FFFFFF;stroke-width:1.0;"/><text fill="#BBBBBB" font-family="Verdana" font-size="11" lengthAdjust="spacing" textLength="7" x="697.2439" y="253.8476">1</text></g><!--link Manager to Campus--><g id="link_Manager_Campus"><path codeLine="109" d="M712.297,334.973 C644.031,387.234 581.0246,435.4703 519.8726,482.2853 " fill="none" id="Manager-to-Campus" style="stroke:#FFFFFF;stroke-width:1.0;"/><polygon fill="none" points="505.58,493.227,523.5198,487.0495,516.2254,477.5211,505.58,493.227" style="stroke:#FFFFFF;stroke-width:1.0;"/><text fill="#BBBBBB" font-family="Verdana" font-size="11" lengthAdjust="spacing" textLength="7" x="697.6526" y="338.7165">1</text></g><!--link Manager to Gauge--><g id="link_Manager_Gauge"><path codeLine="110" d="M800.141,408.12 C792.178,428.667 790.8173,432.1793 783.4483,451.1943 " fill="none" id="Manager-to-Gauge" style="stroke:#FFFFFF;stroke-width:1.0;"/><polygon fill="none" points="776.944,467.978,789.0429,453.3624,777.8537,449.0262,776.944,467.978" style="stroke:#FFFFFF;stroke-width:1.0;"/><text fill="#BBBBBB" font-family="Verdana" font-size="11" lengthAdjust="spacing" textLength="7" x="790.2351" y="425.7787">1</text></g><!--link Manager to DecisionCard--><g id="link_Manager_DecisionCard"><path codeLine="111" d="M955.4,408.12 C968.124,440.724 974.0563,455.9256 984.6813,483.1526 " fill="none" id="Manager-to-DecisionCard" style="stroke:#FFFFFF;stroke-width:1.0;"/><polygon fill="none" points="991.225,499.921,990.2708,480.9713,979.0918,485.3338,991.225,499.921" style="stroke:#FFFFFF;stroke-width:1.0;"/><text fill="#BBBBBB" font-family="Verdana" font-size="11" lengthAdjust="spacing" textLength="7" x="951.0738" y="425.7787">1</text></g><!--link Manager to Tuto--><g id="link_Manager_Tuto"><path codeLine="112" d="M1042.74,353.969 C1079.15,389.563 1116.16,428.753 1147.5,468 C1163.22,487.687 1169.0776,495.7909 1180.6376,516.1359 " fill="none" id="Manager-to-Tuto" style="stroke:#FFFFFF;stroke-width:1.0;"/><polygon fill="none" points="1189.53,531.786,1185.8543,513.1718,1175.4209,519.1,1189.53,531.786" style="stroke:#FFFFFF;stroke-width:1.0;"/><text fill="#BBBBBB" font-family="Verdana" font-size="11" lengthAdjust="spacing" textLength="7" x="1050.386" y="358.5733">1</text></g><!--link Manager to Contextualization--><g id="link_Manager_Contextualization"><path codeLine="113" d="M1042.62,298.382 C1118.87,343.94 1208.1,403.288 1279.5,468 C1304.69,490.828 1317.9606,506.73 1334.2306,529.782 " fill="none" id="Manager-to-Contextualization" style="stroke:#FFFFFF;stroke-width:1.0;"/><polygon fill="none" points="1344.61,544.488,1339.1326,526.3222,1329.3285,533.2418,1344.61,544.488" style="stroke:#FFFFFF;stroke-width:1.0;"/><text fill="#BBBBBB" font-family="Verdana" font-size="11" lengthAdjust="spacing" textLength="7" x="1050.2606" y="300.4675">1</text></g><!--SRC=[bLRTZ-8s47_dht3pbEf2zxPIJoUadiH2ogRDGHMuFTrJPE81t0qsSfpzw7R_znixTWY1Mwaya6I-F3E_-V1FUWTx80eOKr1LGqRL_LO1YC6WA6bLaSzKq2qeyZ8W-1kIlyUhstoroFzSBkPaH9PQSR4blvC0rKTNLyQ8h5K1rLL15Qj- -QUI8d2wQ51F33KH39wWGlsnKlJPiQt2b6gAz9TNHwI5hcbfjAmIihZGUDvxnzTKRK43cyA1Ahq7PFP5SX1iHlUmB4nWo8wxtrweeFj3RLoQs1TFtd11HG4pMcy1cVRPgk1fYfONUUW2A75P3OD1sXGANd4fJ6oUfMijaRN2ny3Itf5S0MNFuS_kamkkZVCjePIKcQIr105FDilXkkObGtHke91xM9GCOHoHjPGb9aUh6hm6WWRwIz9QE02zJyH6LY6lChxTwILdu5IzJ2w53IGtmhcMUGaR7VwGguoPStRpjvCLYF21blNbKmmUkQgv09RxeDhe6hYx2bkJR0zSpgiSzWVz79wBEFpU4cbWl2pX7GCX7wZk-jQLmkHYZHvZfri3YPEiaFpgM-saB5t3lIEkU5jzX2f-EfIye1gB9zI8Tjk77PbaZsqRSlDl2WgbQWM_JhkUmHFN-S5qBB0JbzUrrlZeirmaHuURJcazfOojv2tGKkzQT11E7sf4BC8dS5cLSLawhNC1ZEJ_MKI5j-mLEoZks-mxiRUOVqZrbOjMf3umXDhBJ6GfrMNF2iCQDO_AQ-EaQeia5mPL_nMBUfymLyja-Ca1wZDlQ_-cN_gT0_q9cIz6BspG0ZH-57Lu9Qk8B9TV8ZA9vwjidEBBRVmvMQwoR_YQt2LfF9ybypZEalai8ccyYCWuJT6UDTS4vcpTfEF9Nn79ucb45jbuFeiZyYrEqyNNYCooE9uRBroro256rpfpGcri-kfgPgVVE_a3LToMF2OffMieFSCswXoJQQbzBY-inlAWkCRwTsH3TJtHxGx7RIssZUKOaqMwo9PcFGKpqwJ1A7Z_OREv_Ys8I9012qOaW8_NnNKHl0wE1NddNG-xGNIBTYSVZqAUkiEfUqwrBNDd2Zj47DQW-kMVO6pO-UR_OkVtzaaLcy5sREhkMcgpRyTtJfMIZtui75V9XfQLNsvc2xmjrnzH0XwJ7qqf59foMifjoEpZRD3XV3xKEeG7EAR0h9oLj7lhX9AYQxxHCRR9fQtJPi5iu6FjdGpPotdKShpPy69dGZhI9b9ikDftfpoIZ3cyrF1_cr9ukMpHhfWIdUmCOhJYBsJ1TJ0S_lUfTvdfSzrbfazkxYDzwicDfC-qTv8py_rWlWC0]--></g></svg>